<svg width="43" height="43" viewBox="0 0 43 43" fill="none" xmlns="http://www.w3.org/2000/svg">
<path d="M8.34986 3.58337C5.9951 3.58337 4.08398 5.49449 4.08398 7.84925V35.1508C4.08398 37.5056 5.9951 39.4167 8.34986 39.4167H35.6514C38.0062 39.4167 39.9173 37.5056 39.9173 35.1508V7.84925C39.9173 5.49449 38.0062 3.58337 35.6514 3.58337H8.34986ZM10.9094 15.5278H16.6516C17.2745 15.5278 20.6442 15.4854 20.6442 18.5739C20.6442 20.212 19.5262 20.766 19.0229 21.0135C19.7737 21.2524 21.1475 21.9437 21.1475 24.0596C21.1475 27.3272 17.4016 27.4723 16.8983 27.4723H10.9094V15.5278ZM25.4133 15.5278H31.3856V17.2342H25.4133V15.5278ZM13.4689 17.6008V20.4002H16.2167C16.5921 20.4002 17.8364 20.1947 17.8364 18.9405C17.8364 17.6863 16.2159 17.6008 15.9684 17.6008H13.4689ZM28.5961 18.0873C31.9235 18.0873 32.8271 20.6808 32.9636 21.2951C33.0916 21.9179 33.0919 22.4641 33.0919 23.2064H26.3515C26.3515 23.9487 26.7448 25.6209 28.7327 25.6209C29.2617 25.6209 29.6532 25.4934 30.0542 25.246C30.4466 24.9986 30.5844 24.7586 30.7124 24.5111H32.9553C32.5628 25.4923 32.034 26.2359 31.2406 26.7307C30.4471 27.2256 29.5257 27.4723 28.4678 27.4723C27.8023 27.4723 27.1453 27.3448 26.4798 27.0973C25.9508 26.8499 25.4225 26.4827 25.0301 26.1158C24.6376 25.7405 24.3731 25.2454 24.1086 24.6311C23.8441 24.1363 23.707 23.3941 23.707 22.7798C23.707 22.1655 23.9548 18.0873 28.5961 18.0873ZM28.5961 19.8187C26.6679 19.8187 26.3515 21.6705 26.3515 21.79H30.5841C30.4475 21.1757 29.8929 19.8187 28.5961 19.8187ZM13.4689 22.1066V25.3993H16.3284C16.5749 25.3993 18.3147 25.3231 18.3147 23.8129C18.3147 22.3114 16.9478 22.1066 16.3284 22.1066H13.4689Z" fill="#44C1F6"/>
</svg>
