<svg width="32" height="32" viewBox="0 0 32 32" fill="none" xmlns="http://www.w3.org/2000/svg">
<path d="M24.8606 23.1445C23.3084 23.6193 21.4338 23.8281 19.2335 23.4172L21.4422 27.0003H27.3283L24.8622 23.1445H24.8606ZM21.2567 12.1428C21.2567 12.6614 21.1415 13.1109 20.9142 13.483C20.682 13.8636 20.3479 14.1582 19.9185 14.3603C19.9018 14.3687 19.8884 14.3738 19.8717 14.3822C24.5565 15.9312 28.0634 9.01267 22.9425 5.9095C21.7379 5.30503 20.2526 5.00195 18.5418 5.00195H8.3418V11.1864C10.0794 10.7756 11.9155 10.7924 13.6832 11.3295V9.62219H18.3496C19.2552 9.62219 19.9719 9.84276 20.4815 10.2671C20.9961 10.6998 21.2584 11.3312 21.2584 12.1428H21.2567ZM8.3418 20.7704V27.0003H13.6832V20.8192C10.4353 18.9906 8.3418 20.772 8.3418 20.772V20.7704Z" fill="#1C1C1C"/>
<path d="M0 23.6242H5.54023C5.7307 21.4067 8.68459 16.6871 14.4287 20.2719C21.6079 24.754 28.4714 21.7856 30.7904 16.9464C31.9783 14.4511 31.9866 11.5062 31.9983 10.9102H26.4748C26.2843 13.2708 23.0147 18.4265 16.5823 14.0318C9.08557 8.99067 3.18279 14.9748 2.08009 16.8488C1.24137 18.1503 0.227223 20.6254 0 23.6242Z" fill="#44C1F6"/>
</svg>
