<svg width="43" height="43" viewBox="0 0 43 43" fill="none" xmlns="http://www.w3.org/2000/svg">
<path d="M14.0377 3.58337C8.54125 3.58337 4.08398 8.04064 4.08398 13.5371V29.463C4.08398 34.9594 8.54125 39.4167 14.0377 39.4167H29.9636C35.46 39.4167 39.9173 34.9594 39.9173 29.463V13.5371C39.9173 8.04064 35.46 3.58337 29.9636 3.58337H14.0377ZM33.9451 7.56486C35.044 7.56486 35.9358 8.45671 35.9358 9.5556C35.9358 10.6545 35.044 11.5463 33.9451 11.5463C32.8462 11.5463 31.9544 10.6545 31.9544 9.5556C31.9544 8.45671 32.8462 7.56486 33.9451 7.56486ZM22.0007 11.5463C27.4971 11.5463 31.9544 16.0036 31.9544 21.5C31.9544 26.9965 27.4971 31.4537 22.0007 31.4537C16.5042 31.4537 12.0469 26.9965 12.0469 21.5C12.0469 16.0036 16.5042 11.5463 22.0007 11.5463ZM22.0007 15.5278C20.4167 15.5278 18.8977 16.157 17.7777 17.277C16.6576 18.397 16.0284 19.9161 16.0284 21.5C16.0284 23.084 16.6576 24.603 17.7777 25.723C18.8977 26.843 20.4167 27.4723 22.0007 27.4723C23.5846 27.4723 25.1036 26.843 26.2236 25.723C27.3437 24.603 27.9729 23.084 27.9729 21.5C27.9729 19.9161 27.3437 18.397 26.2236 17.277C25.1036 16.157 23.5846 15.5278 22.0007 15.5278Z" fill="#44C1F6"/>
</svg>
