<svg width="43" height="43" viewBox="0 0 43 43" fill="none" xmlns="http://www.w3.org/2000/svg">
<path d="M35.4358 4.08337H7.56547C5.3657 4.08337 3.58398 5.86509 3.58398 8.06486V35.9352C3.58398 38.135 5.3657 39.9167 7.56547 39.9167H35.4358C37.6356 39.9167 39.4173 38.135 39.4173 35.9352V8.06486C39.4173 5.86509 37.6356 4.08337 35.4358 4.08337ZM15.5284 31.9537H10.5058V18.0186H15.5284V31.9537ZM12.9285 15.4644C11.3937 15.4644 10.3684 14.4412 10.3684 13.0755C10.3684 11.7099 11.3917 10.6867 13.0977 10.6867C14.6326 10.6867 15.6578 11.7099 15.6578 13.0755C15.6578 14.4412 14.6346 15.4644 12.9285 15.4644ZM33.4451 31.9537H28.5837V24.3372C28.5837 22.231 27.2877 21.7452 26.802 21.7452C26.3163 21.7452 24.6958 22.0697 24.6958 24.3372C24.6958 24.6617 24.6958 31.9537 24.6958 31.9537H19.6731V18.0186H24.6958V19.9635C25.3428 18.8288 26.6388 18.0186 29.0694 18.0186C31.5001 18.0186 33.4451 19.9635 33.4451 24.3372V31.9537Z" fill="#44C1F6"/>
</svg>
