<svg width="261" height="33" viewBox="0 0 261 33" fill="none" xmlns="http://www.w3.org/2000/svg">
<g clip-path="url(#clip0_377_12)" filter="url(#filter0_f_377_12)">
<path d="M112.658 24.2149H119.465C119.702 21.4986 123.33 15.7072 130.387 20.1045C139.209 25.6 147.643 21.9602 150.492 16.0255C151.95 12.9685 151.963 9.35564 151.977 8.625H145.192C144.955 11.5207 140.939 17.8409 133.035 12.453C123.821 6.27172 116.568 13.6095 115.213 15.909C114.183 17.5047 112.935 20.5393 112.658 24.2149Z" fill="#44C1F6"/>
<path d="M19.2296 19.7639L19.4703 19.6743C19.8403 19.5443 20.1569 19.4098 20.4377 19.2753C21.9578 18.5313 23.1213 17.4824 23.9059 16.16C24.6905 14.8288 25.0872 13.2823 25.0872 11.5611C25.0872 9.83981 24.6905 8.2351 23.9059 6.8814C23.1213 5.53219 21.9578 4.46089 20.4377 3.70784C18.9131 2.94583 17.0408 2.56482 14.8788 2.56482H2V30.2797H8.74474V20.4004H12.4448L18.5387 30.2797H25.9699L19.2296 19.7639ZM17.8744 13.2509C17.5847 13.7261 17.1612 14.0981 16.6173 14.3536C16.0824 14.6091 15.4137 14.7346 14.6336 14.7346H8.74474V8.3875H14.6336C15.7792 8.3875 16.6842 8.66093 17.3261 9.19882C17.977 9.7412 18.3068 10.5391 18.3068 11.5611C18.3068 12.211 18.1597 12.7803 17.8744 13.2509Z" fill="#1C1C1C"/>
<path d="M34.5326 2.56482H27.9082V30.2797H34.5326V2.56482Z" fill="#1C1C1C"/>
<path d="M63.0286 2.56482L54.162 30.2797H44.8896L36.0586 2.56482H43.2179L49.2316 23.5337H49.9359L56.0298 2.56482H63.0286Z" fill="#1C1C1C"/>
<path d="M84.3323 24.457V30.2797H64.5527V2.56482H84.1316V8.3875H71.2975V13.4482H83.2V18.8316H71.2975V24.457H84.3323Z" fill="#1C1C1C"/>
<path d="M103.978 19.7639L104.218 19.6743C104.588 19.5443 104.905 19.4098 105.186 19.2753C105.944 18.9033 106.617 18.4551 107.196 17.9351C107.776 17.4151 108.262 16.819 108.654 16.16C109.439 14.8288 109.835 13.2823 109.835 11.5611C109.835 9.83981 109.439 8.2351 108.654 6.8814C107.869 5.53219 106.706 4.46089 105.186 3.70784C103.661 2.94583 101.789 2.56482 99.6268 2.56482H86.748V30.2797H93.4928V20.4004H97.1973L103.287 30.2797H110.718L103.978 19.7639ZM102.622 13.2509C102.333 13.7261 101.909 14.0981 101.365 14.3536C100.83 14.6091 100.162 14.7346 99.3816 14.7346H93.4928V8.3875H99.3816C100.527 8.3875 101.432 8.66093 102.074 9.19882C102.725 9.7412 103.055 10.5391 103.055 11.5611C103.055 12.211 102.908 12.7803 102.622 13.2509Z" fill="#1C1C1C"/>
<path d="M174.662 18.594H181.933C181.852 20.7724 181.251 22.8119 180.154 24.6542C179.022 26.5548 177.448 28.0788 175.487 29.1815C173.521 30.2842 171.265 30.8445 168.782 30.8445C166.299 30.8445 163.963 30.2259 161.988 29.0067C160.009 27.783 158.453 26.0617 157.361 23.8832C156.264 21.7003 155.707 19.1901 155.707 16.42C155.707 13.6498 156.264 11.1442 157.361 8.96122C158.453 6.78276 160.018 5.05702 162.006 3.8378C163.999 2.61858 166.29 2 168.822 2C171.354 2 173.556 2.5603 175.504 3.66298C177.457 4.76566 179.022 6.27624 180.154 8.1499C181.251 9.96529 181.848 11.9645 181.933 14.0891H174.702C174.626 13.1478 174.363 12.2513 173.926 11.4266C173.454 10.5435 172.776 9.81288 171.92 9.26154C171.055 8.70572 170.026 8.42781 168.862 8.42781C167.641 8.42781 166.562 8.77296 165.657 9.44981C164.756 10.1267 164.052 11.0635 163.553 12.2468C163.062 13.4168 162.813 14.8242 162.813 16.42C162.813 18.0157 163.062 19.4322 163.553 20.6156C164.052 21.8124 164.756 22.7537 165.657 23.4126C166.562 24.0805 167.641 24.4167 168.862 24.4167C169.999 24.4167 171.011 24.1432 171.876 23.6053C172.736 23.063 173.414 22.3278 173.886 21.4179C174.328 20.5618 174.586 19.616 174.662 18.594Z" fill="#1C1C1C"/>
<path d="M208.76 8.94329C207.637 6.77828 206.055 5.0615 204.053 3.8378C202.047 2.61858 199.733 2 197.174 2C194.616 2 192.257 2.61858 190.256 3.8378C188.254 5.05702 186.676 6.77379 185.566 8.94329C184.456 11.1128 183.895 13.6274 183.895 16.42C183.895 19.2125 184.456 21.7317 185.566 23.9012C186.676 26.0707 188.254 27.783 190.256 29.0067C192.257 30.2259 194.584 30.8445 197.174 30.8445C199.765 30.8445 202.047 30.2259 204.053 29.0067C206.055 27.783 207.637 26.0662 208.76 23.9012C209.884 21.7317 210.454 19.2125 210.454 16.42C210.454 13.6274 209.884 11.1128 208.76 8.94329ZM202.564 20.5976C202.069 21.7765 201.36 22.7178 200.46 23.3947C199.555 24.0715 198.449 24.4167 197.174 24.4167C195.9 24.4167 194.821 24.0715 193.889 23.3947C192.962 22.7178 192.24 21.7765 191.745 20.5976C191.25 19.4277 191 18.0247 191 16.42C191 14.8153 191.25 13.4168 191.745 12.2468C192.24 11.0635 192.962 10.1222 193.889 9.44981C194.821 8.76848 195.926 8.42781 197.174 8.42781C198.423 8.42781 199.555 8.77296 200.46 9.44981C201.36 10.1267 202.069 11.068 202.564 12.2468C203.059 13.4168 203.308 14.8198 203.308 16.42C203.308 18.0202 203.059 19.4277 202.564 20.5976Z" fill="#1C1C1C"/>
<path d="M235.395 9.22572C234.276 7.14139 232.627 5.49185 230.492 4.32642C228.352 3.1565 225.762 2.56482 222.797 2.56482H212.549V30.2797H222.797C225.766 30.2797 228.352 29.688 230.492 28.5181C232.627 27.3527 234.276 25.7031 235.395 23.6188C236.519 21.53 237.085 19.105 237.085 16.42C237.085 13.735 236.519 11.3145 235.395 9.22572ZM229.239 20.4004C228.74 21.53 227.946 22.4265 226.876 23.063C225.815 23.695 224.442 24.0178 222.797 24.0178H219.289V8.82678H222.797C224.416 8.82678 225.775 9.14952 226.836 9.78154C227.902 10.4136 228.704 11.3101 229.217 12.4396C229.725 13.5602 229.984 14.9005 229.984 16.42C229.984 17.9396 229.729 19.2843 229.239 20.4004Z" fill="#1C1C1C"/>
<path d="M259 24.457V30.2797H239.225V2.56482H258.799V8.3875H245.965V13.4482H257.872V18.8316H245.965V24.457H259Z" fill="#1C1C1C"/>
</g>
<defs>
<filter id="filter0_f_377_12" x="0" y="0" width="261" height="33" filterUnits="userSpaceOnUse" color-interpolation-filters="sRGB">
<feFlood flood-opacity="0" result="BackgroundImageFix"/>
<feBlend mode="normal" in="SourceGraphic" in2="BackgroundImageFix" result="shape"/>
<feGaussianBlur stdDeviation="1" result="effect1_foregroundBlur_377_12"/>
</filter>
<clipPath id="clip0_377_12">
<rect width="257" height="29" fill="white" transform="translate(2 2)"/>
</clipPath>
</defs>
</svg>
